<svg xmlns="http://www.w3.org/2000/svg" width="213.695" height="145.816" viewBox="0 0 213.695 145.816"><g fill="#777"><path d="M83.956 135.06h5.524c.938 0 1.696.759 1.696 1.679v2.473c0 .42-.322.889-.84 1.066.419.062.904.467.904 1.049v2.812c0 .921-.759 1.679-1.696 1.679h-5.589V135.06zm4.75 4.313c.098 0 .146-.065.146-.146v-1.906c0-.096-.063-.178-.179-.178h-2.375v2.229h2.408zm-2.408 4.361h2.456c.098 0 .161-.066.161-.163v-2.067c0-.097-.064-.161-.176-.161h-2.441v2.391zM97.218 135.06h6.688v2.132H99.56v2.051h4.006v2.133H99.56v2.311h4.361v2.132h-6.704V135.06zM109.738 135.06h6.688v2.132h-4.346v2.051h4.006v2.133h-4.006v2.311h4.361v2.132h-6.703V135.06zM126.199 141.859h-1.6v3.957h-2.343V135.06h5.978a1.77 1.77 0 0 1 1.776 1.774v3.248c0 .809-.532 1.486-1.275 1.712l1.907 4.021h-2.568l-1.875-3.956zm-1.599-4.668v2.536h2.924c.097 0 .162-.065.162-.161v-2.213c0-.099-.065-.162-.162-.162H124.6z"/></g><g fill="#4F4F50"><path d="M92.454 115.602c-.553-1.022-.707-2.07-.707-3.783V94.785c0-1.756-.438-2.85-1.705-4 .365.801.546 1.709.546 2.842v17.033c0 2.33.217 3.13 1.866 4.942zM125.504 111.818V93.293c-.188-.058-.605-.207-1.157-.403v17.771c0 2.402.29 3.219 1.869 4.945-.554-1.026-.712-2.068-.712-3.788zM107.901 95.074a32.62 32.62 0 0 0-1.148-.02c-.655 0-1.651 0-1.783.133-1.238 1.231-1.994 5.761-1.994 8.461 0 3.798 1.232 7.053 3.221 9.129-1.319-2.197-2.065-4.982-2.065-7.971 0-2.476.667-7.617 2.337-9.283.311-.309.774-.415 1.432-.449zM90.588 72.28h1.158v6.456h-1.158zM46.769 115.594c-.548-1.017-.706-2.063-.706-3.774V94.785c0-1.756-.438-2.854-1.706-4.002.368.799.546 1.71.546 2.844v17.033c0 2.326.22 3.124 1.866 4.934zM60.133 76.088v34.572c0 2.332.221 3.13 1.863 4.939-.549-1.022-.703-2.068-.703-3.781v-35.73h-1.16zM75.358 76.088v34.572c0 2.328.219 3.125 1.866 4.938-.551-1.021-.708-2.068-.708-3.779v-35.73l-1.158-.001zM205.322 96.836l5.967-4.613c-.436-.157-.877-.317-1.303-.475l-5.897 4.555c.375.162.779.335 1.233.533zM197.199 79.314l-6.461 4.838v1.442l7.62-5.705V72.28h-1.159zM44.903 72.28h1.16v6.456h-1.16zM165.525 95.074c-.371-.013-.747-.02-1.148-.02-.696 0-1.653 0-1.789.135-1.233 1.229-1.99 5.759-1.99 8.459 0 3.801 1.235 7.057 3.221 9.131-1.318-2.197-2.063-4.981-2.063-7.973 0-2.476.665-7.617 2.335-9.283.313-.309.774-.415 1.434-.449zM141.848 96.867a9.373 9.373 0 0 0-1.121-.778c-.984 1.102-1.15 1.643-1.15 3.217v11.354c0 2.332.217 3.13 1.862 4.939-.549-1.022-.704-2.068-.704-3.781v-11.359c-.001-1.65.211-2.47 1.113-3.592zM181.969 76.088v34.572c0 2.328.223 3.128 1.864 4.934-.55-1.017-.704-2.063-.704-3.774V76.09l-1.16-.002zM115.098 118.549l-5.278 4.17c-.17.14-.53.421-1.899.534.32.03.638.05.955.05.871 0 2.205-.063 2.542-.334l4.235-3.352a10.509 10.509 0 0 1-.555-1.068zM29.675 76.088v56.752c0 2.394.288 3.209 1.87 4.938-.554-1.021-.713-2.064-.713-3.781V76.088h-1.157zM136.25 122.818c.257.27.525.544.81.821l6.878-5.012c-.29-.299-.554-.571-.797-.831l-6.891 5.022zM121.023 122.818c.257.27.523.541.81.821l6.879-5.012a52.11 52.11 0 0 1-.795-.831l-6.894 5.022zM172.723 118.549l-5.286 4.17c-.181.148-.526.422-1.888.534.316.03.635.05.948.05.868 0 2.205-.063 2.541-.334l4.24-3.352c-.212-.361-.4-.717-.555-1.068zM211.889 105.59c.434.894.647 1.887.647 3.045l-.002 3.451c-.088 1.736-.518 3.027-2.453 4.472l-3.471 2.595c-4.378 3.185-5.751 3.958-8.382 4.112.296.02.586.034.859.034 3.366 0 4.107-.251 9.146-3.921l3.471-2.594c1.589-1.183 1.916-2.13 1.989-3.601v-3.394c.002-1.687-.5-2.984-1.804-4.199zM184.923 118.341l-.061-.053-6.216 4.53c.254.27.521.541.808.821l6.314-4.6a19.395 19.395 0 0 1-.845-.698zM87.263 122.818c.257.27.524.544.811.821l6.873-5.012c-.29-.299-.553-.571-.795-.834l-6.889 5.025zM151.517 91.775c.781 1.21 1.28 2.385 1.28 3.188v.563l-5.688 4.483c.151.438.235.879.235 1.321l6.61-5.212c.003-.884-1.024-2.741-2.437-4.343zM19.748 100.242l-7.766 5.822v11.987l-6.457 4.851v1.451l7.615-5.724v-11.985l6.608-4.955zM11.982 78.137v20.181l1.158-.866v-18.16c0-1.9-.884-3.641-2.513-5.507.928 1.477 1.355 2.875 1.355 4.352zM26.352 144.994c.256.273.523.545.809.822l6.884-5.012c-.291-.3-.553-.572-.795-.832l-6.898 5.022zM41.578 122.818c.257.27.525.544.811.821l6.882-5.012a44.963 44.963 0 0 1-.797-.831l-6.896 5.022zM72.036 122.818c.257.27.526.544.812.821l6.878-5.012a49.075 49.075 0 0 1-.799-.831l-6.891 5.022zM56.803 122.818c.256.27.523.544.81.821l6.882-5.012a57.34 57.34 0 0 1-.796-.831l-6.896 5.022z"/></g><path fill="#777" d="M28.517 74.93h-7.611v18.147l-10.085 7.557V78.137c0-2.406-1.402-4.546-3.943-7.016L0 76.134c2.669 2.737 3.21 3.605 3.21 6.812v40.25l7.611-5.726v-11.985l10.085-7.558v39.719c0 2.403 1.403 4.543 3.938 7.013l6.883-5.01c-2.668-2.739-3.21-3.605-3.21-6.81V74.93zm30.457 0h-7.619v40.538c0 2.404 1.406 4.544 3.94 7.014l6.883-5.011c-2.674-2.736-3.205-3.603-3.205-6.811l.001-35.73zM43.745 93.627c0-2.574-.938-3.729-4.065-5.721l-7.016 5.254-.004.002c3.267 2.005 3.474 2.871 3.474 4.81v17.497c0 2.404 1.403 4.543 3.938 7.014l6.882-5.011c-2.671-2.736-3.207-3.603-3.207-6.811l-.002-17.034zm152.297-22.505h-7.622v13.315l7.622-5.701v-7.614zm-106.613 0h-7.612v7.614h7.612v-7.614zm-45.684 0h-7.611v7.614h7.611v-7.614zm137.068 3.808h-7.616v14.428c-1.737-.536-3.675-1.068-5.21-1.068-.866 0-1.4.265-2.001.732l-11.089 8.283c-1.333 1.071-2.27 5.875-2.27 9.418 0 10.617 6.007 15.422 11.554 15.422.866 0 2.204-.062 2.539-.331l6.598-5.213c.371 1.962 1.688 3.8 3.82 5.881l6.881-5.011c-2.676-2.736-3.205-3.603-3.205-6.811l-.001-35.73zm-7.616 40.469c-1.269.534-2.403.938-4.009.938-5.81 0-9.751-5.811-9.751-12.689 0-2.474.666-7.615 2.336-9.281.472-.47 1.271-.47 2.603-.47 2.674 0 4.413.191 8.82 2.271l.001 19.231zM74.199 74.93h-7.613v40.538c0 2.404 1.401 4.544 3.944 7.014l6.876-5.011c-2.67-2.736-3.206-3.603-3.206-6.811l-.001-35.73zm71.882 13.204l-7.665 5.737v-.148c-.085-2.383-.628-3.805-3.901-5.821l-7.021 5.262c3.245 2.104 3.307 2.393 3.307 6.413v15.894c0 2.404 1.408 4.544 3.942 7.014l6.881-5.011c-2.676-2.736-3.206-3.603-3.206-6.811V99.305c0-1.974.299-2.762 1.724-4.291l.432-.333c2.755 1.4 4.458 3.441 4.458 5.495l6.61-5.212c-.003-1.478-2.828-5.628-5.561-6.83zM199.396 99.3c-5.856-2.321-6.799-2.643-6.799-4.447l.193-.156c1.203-.974 2.746-1.031 2.746-1.031 2.67 0 3.348.23 7.466 2.013l5.968-4.613c-2.246-.81-4.619-1.705-4.619-1.705-1.735-.536-3.673-1.068-5.209-1.068-.869 0-1.402.265-2.004.732l-7.747 5.787c-1.576 1.183-1.91 2.123-1.978 3.589.018 3.911 2.737 5.715 11.981 9.304l2.085.84c.429.185 7.955 2.711 4.434 6.836 0 0-1.699 1.629-2.736 1.857-3.826.84-7.372-1.835-11.064-4.451l-6.428 4.687c3.959 3.465 8.095 4.673 11.088 4.673 3.363 0 4.105-.251 9.143-3.92l3.474-2.594c1.587-1.186 1.914-2.131 1.986-3.602v-3.394c.002-3.939-2.713-5.747-11.98-9.337zm-76.209-7.165c-.938-.292-7.614-2.776-7.614-2.776-1.738-.536-3.673-1.068-5.206-1.068-.869 0-1.403.265-2.004.732l-11.088 8.283C95.939 98.377 95 103.18 95 106.723c0 10.617 6.014 15.422 11.557 15.422.872 0 2.207-.062 2.544-.331l6.592-5.213c.372 1.962 1.69 3.8 3.822 5.881l6.878-5.011c-2.67-2.736-3.206-3.603-3.206-6.811V92.135zm-7.614 23.264c-1.269.534-2.402.938-4.002.938-5.813 0-9.757-5.811-9.757-12.689 0-2.474.667-7.615 2.337-9.281.47-.47 1.27-.47 2.602-.47 2.674 0 4.413.191 8.82 2.271v19.231zM89.429 93.627c0-2.574-.939-3.729-4.072-5.721l-7.012 5.254v.002c3.27 2.005 3.472 2.871 3.472 4.81v17.497c0 2.404 1.4 4.543 3.941 7.014l6.872-5.011c-2.668-2.736-3.201-3.603-3.201-6.811V93.627zM88.778 20.786c0-5.95 2.879-11.229 7.316-14.521 0 0 1.097-1.016 1.094-2.134V0l-1.567.905s-3.1 1.789-3.1 5.37l.005 2.291c-.132.151-.263.306-.39.463a5.932 5.932 0 0 0-.272-1.103l-1.228-3.364-1.165 1.385s-2.301 2.742-1.074 6.105l.791 2.178c-.069.188-.138.378-.202.569a5.902 5.902 0 0 0-.645-.968l-2.303-2.742-.622 1.698s-1.225 3.365 1.078 6.109l1.515 1.802c0 .029-.003.058-.003.086 0 .179.018.349.021.521a5.79 5.79 0 0 0-.979-.72l-3.1-1.788v1.807s0 3.58 3.102 5.367l2.08 1.2c.068.186.134.373.206.557a5.745 5.745 0 0 0-1.188-.357l-3.525-.618.621 1.7s1.222 3.362 4.75 3.981l2.394.421c.129.152.268.3.402.45a5.445 5.445 0 0 0-1.284.071l-3.523.619 1.161 1.387s2.3 2.742 5.828 2.117l2.436-.428a18.976 18.976 0 0 0 3.148 1.47 17.684 17.684 0 0 1 3.785 1.948v-.92a18.782 18.782 0 0 0-3.785-1.843c-6.879-2.554-11.778-9.174-11.778-16.94zm20.578.552l-5.017 3.759v5.961l-3.785 2.846V13.889c0-1.599-.271-2.028-1.599-3.39l3.422-2.492c1.263 1.229 1.961 2.29 1.961 3.488v11.187l5.017-3.755V9.902h3.783v25.992c5.915-2.468 10.071-8.302 10.071-15.108 0-9.038-7.323-16.364-16.366-16.364-9.037 0-16.362 7.326-16.362 16.364s7.325 16.364 16.362 16.364c.855 0 1.691-.084 2.512-.211l.001-15.601zm17.287 4.635c3.101-1.787 3.101-5.367 3.101-5.367V18.8l-3.099 1.788c-.375.215-.69.462-.98.72.005-.173.021-.343.021-.521 0-.028-.003-.057-.003-.086l1.512-1.802c2.306-2.744 1.08-6.109 1.08-6.109l-.619-1.698-2.303 2.742a5.645 5.645 0 0 0-.646.968 15.99 15.99 0 0 0-.202-.569l.792-2.177c1.227-3.364-1.074-6.106-1.074-6.106l-1.162-1.385-1.227 3.364a5.846 5.846 0 0 0-.276 1.104 16.933 16.933 0 0 0-.387-.463V6.275c.003-3.581-3.099-5.37-3.099-5.37L116.507 0v4.131c-.004 1.118.707 1.828 1.089 2.128l.005.006c4.438 3.296 7.315 8.571 7.315 14.521 0 7.767-4.896 14.386-11.777 16.939v.005a18.844 18.844 0 0 0-3.783 1.843v.92a17.692 17.692 0 0 1 3.783-1.948 19.037 19.037 0 0 0 3.146-1.47l2.439.428c3.528.625 5.826-2.117 5.826-2.117l1.163-1.387-3.523-.619a5.406 5.406 0 0 0-1.285-.071c.134-.15.274-.298.402-.45l2.393-.421c3.527-.619 4.75-3.981 4.75-3.981l.622-1.7-3.526.618a5.718 5.718 0 0 0-1.189.357c.073-.186.138-.371.206-.557l2.08-1.202z"/></svg>