<svg xmlns="http://www.w3.org/2000/svg" width="213.695" height="145.816" viewBox="0 0 213.695 145.816"><g fill="#777"><path d="M83.956 135.06h5.524c.938 0 1.696.76 1.696 1.68v2.472c0 .42-.322.89-.84 1.066.42.062.904.467.904 1.05v2.81c0 .922-.76 1.68-1.696 1.68h-5.59V135.06zm4.75 4.313c.098 0 .146-.065.146-.146v-1.906c0-.095-.063-.177-.18-.177H86.3v2.23h2.408zm-2.408 4.36h2.456c.098 0 .16-.065.16-.162v-2.066c0-.097-.063-.16-.175-.16h-2.442v2.39zM97.218 135.06h6.688v2.132H99.56v2.05h4.006v2.134H99.56v2.31h4.36v2.133h-6.703v-10.76zM109.738 135.06h6.688v2.132h-4.346v2.05h4.006v2.134h-4.006v2.31h4.36v2.133h-6.702v-10.76zM126.2 141.86h-1.6v3.956h-2.344V135.06h5.978c.986 0 1.776.79 1.776 1.774v3.248c0 .81-.532 1.486-1.275 1.712l1.907 4.02h-2.568l-1.875-3.955zm-1.6-4.67v2.537h2.924c.097 0 .162-.065.162-.16v-2.214c0-.1-.065-.162-.162-.162H124.6z"/></g><g fill="#4F4F50"><path d="M92.454 115.602c-.553-1.022-.707-2.07-.707-3.783V94.784c0-1.756-.438-2.85-1.705-4 .365.8.546 1.71.546 2.842v17.033c0 2.33.217 3.13 1.866 4.942zM125.504 111.818V93.293c-.188-.058-.605-.207-1.157-.403v17.77c0 2.403.29 3.22 1.87 4.946-.555-1.026-.713-2.068-.713-3.788zM107.9 95.074c-.37-.013-.748-.02-1.147-.02-.655 0-1.65 0-1.783.133-1.238 1.23-1.994 5.76-1.994 8.46 0 3.8 1.232 7.054 3.22 9.13-1.318-2.197-2.064-4.982-2.064-7.97 0-2.477.667-7.618 2.337-9.284.31-.31.773-.415 1.43-.45zM90.588 72.28h1.158v6.456h-1.158zM46.77 115.594c-.55-1.017-.707-2.063-.707-3.774V94.785c0-1.756-.438-2.854-1.706-4.002.368.8.546 1.71.546 2.844v17.033c0 2.326.22 3.124 1.866 4.934zM60.133 76.088v34.572c0 2.332.22 3.13 1.863 4.94-.55-1.023-.703-2.07-.703-3.782v-35.73h-1.16zM75.358 76.088v34.572c0 2.328.22 3.125 1.866 4.938-.55-1.02-.708-2.068-.708-3.78V76.09h-1.158zM205.322 96.836l5.967-4.613c-.437-.157-.878-.317-1.304-.475l-5.897 4.555c.374.162.778.335 1.232.533zM197.2 79.314l-6.462 4.838v1.442l7.62-5.705v-7.61h-1.16zM44.903 72.28h1.16v6.456h-1.16zM165.525 95.074c-.37-.013-.747-.02-1.148-.02-.696 0-1.653 0-1.79.135-1.232 1.228-1.99 5.758-1.99 8.458 0 3.8 1.236 7.057 3.222 9.13-1.32-2.196-2.064-4.98-2.064-7.972 0-2.476.665-7.617 2.335-9.283.314-.31.775-.415 1.435-.45zM141.848 96.867c-.337-.273-.71-.535-1.12-.778-.985 1.1-1.15 1.642-1.15 3.216v11.354c0 2.332.216 3.13 1.86 4.94-.548-1.023-.703-2.07-.703-3.782v-11.36c0-1.65.21-2.47 1.113-3.59zM181.97 76.088v34.572c0 2.328.222 3.128 1.863 4.934-.55-1.017-.704-2.063-.704-3.774V76.09l-1.16-.002zM115.098 118.55l-5.278 4.17c-.17.14-.53.42-1.9.533.32.03.64.05.956.05.87 0 2.205-.063 2.542-.334l4.235-3.353c-.213-.36-.4-.717-.555-1.068zM29.675 76.088v56.752c0 2.394.288 3.21 1.87 4.938-.554-1.02-.713-2.064-.713-3.78v-57.91h-1.157zM136.25 122.818c.257.27.525.544.81.82l6.878-5.01c-.29-.3-.554-.572-.797-.832l-6.89 5.022zM121.023 122.818c.257.27.523.54.81.82l6.88-5.01c-.293-.3-.553-.572-.796-.832l-6.894 5.022zM172.723 118.55l-5.286 4.17c-.18.147-.526.42-1.888.533.315.03.634.05.947.05.868 0 2.205-.063 2.54-.334l4.24-3.353c-.21-.36-.4-.717-.554-1.068zM211.89 105.59c.433.894.646 1.887.646 3.045l-.002 3.45c-.088 1.737-.518 3.028-2.453 4.473l-3.47 2.595c-4.378 3.185-5.75 3.958-8.382 4.112.296.02.586.034.86.034 3.365 0 4.106-.252 9.145-3.922l3.47-2.594c1.59-1.183 1.917-2.13 1.99-3.6v-3.395c.002-1.688-.5-2.985-1.804-4.2zM184.923 118.34l-.06-.052-6.217 4.53c.254.27.52.54.808.82l6.314-4.6c-.285-.222-.567-.453-.845-.697zM87.263 122.818c.257.27.524.544.81.82l6.874-5.01c-.29-.3-.553-.572-.795-.835l-6.89 5.025zM151.517 91.775c.78 1.21 1.28 2.385 1.28 3.188v.563l-5.688 4.483c.15.437.234.878.234 1.32l6.61-5.212c.003-.884-1.024-2.74-2.437-4.343zM19.748 100.242l-7.766 5.822v11.987l-6.457 4.852v1.45l7.615-5.723v-11.986l6.608-4.955zM11.982 78.137v20.18l1.158-.865v-18.16c0-1.9-.884-3.64-2.513-5.507.928 1.477 1.355 2.875 1.355 4.352zM26.352 144.994c.256.273.523.545.81.822l6.883-5.012c-.29-.3-.553-.572-.795-.832l-6.898 5.022zM41.578 122.818c.257.27.525.544.81.82l6.883-5.01c-.29-.3-.555-.572-.796-.832l-6.896 5.022zM72.036 122.818c.257.27.526.544.812.82l6.878-5.01c-.293-.3-.556-.572-.8-.832l-6.89 5.022zM56.803 122.818c.256.27.523.544.81.82l6.882-5.01c-.29-.3-.553-.572-.796-.832l-6.897 5.022z"/></g><path fill="#777" d="M28.517 74.93h-7.61v18.147l-10.086 7.557V78.137c0-2.406-1.4-4.546-3.942-7.016L0 76.135c2.67 2.737 3.21 3.605 3.21 6.812v40.25l7.61-5.726v-11.985l10.086-7.558v39.72c0 2.402 1.403 4.542 3.938 7.012l6.883-5.01c-2.668-2.74-3.21-3.606-3.21-6.81V74.93zm30.457 0h-7.62v40.538c0 2.404 1.407 4.544 3.94 7.014l6.884-5.01c-2.674-2.737-3.205-3.604-3.205-6.812V74.93zm-15.23 18.697c0-2.574-.937-3.73-4.064-5.72l-7.016 5.253-.004.002c3.267 2.005 3.474 2.87 3.474 4.81v17.497c0 2.403 1.403 4.542 3.938 7.013l6.882-5.01c-2.67-2.737-3.207-3.604-3.207-6.812l-.002-17.033zm152.298-22.505h-7.622v13.315l7.622-5.7V71.12zm-106.613 0h-7.613v7.614h7.612v-7.614zm-45.685 0h-7.61v7.614h7.61v-7.614zm137.068 3.808h-7.616v14.428c-1.737-.536-3.675-1.068-5.21-1.068-.866 0-1.4.265-2 .732l-11.09 8.283c-1.333 1.07-2.27 5.875-2.27 9.418 0 10.617 6.007 15.422 11.554 15.422.867 0 2.205-.062 2.54-.33l6.598-5.214c.37 1.963 1.688 3.8 3.82 5.882l6.88-5.01c-2.675-2.737-3.204-3.604-3.204-6.812V74.93zm-7.616 40.47c-1.27.533-2.403.937-4.01.937-5.81 0-9.75-5.81-9.75-12.69 0-2.473.666-7.614 2.336-9.28.472-.47 1.27-.47 2.603-.47 2.674 0 4.413.19 8.82 2.27V115.4zM74.2 74.93h-7.614v40.538c0 2.404 1.4 4.544 3.944 7.014l6.876-5.01c-2.67-2.737-3.206-3.604-3.206-6.812V74.93zm71.88 13.204l-7.664 5.737v-.147c-.085-2.383-.628-3.805-3.9-5.82l-7.022 5.26c3.245 2.105 3.307 2.394 3.307 6.414v15.894c0 2.405 1.41 4.545 3.943 7.015l6.88-5.01c-2.675-2.737-3.205-3.604-3.205-6.812V99.305c0-1.974.3-2.762 1.724-4.29l.432-.334c2.755 1.4 4.458 3.442 4.458 5.496l6.61-5.212c-.003-1.478-2.828-5.628-5.56-6.83zM199.397 99.3c-5.856-2.32-6.8-2.643-6.8-4.447l.194-.156c1.203-.974 2.746-1.03 2.746-1.03 2.67 0 3.348.23 7.466 2.012l5.968-4.614c-2.246-.81-4.62-1.705-4.62-1.705-1.734-.535-3.672-1.067-5.208-1.067-.87 0-1.402.265-2.004.732l-7.747 5.787c-1.575 1.183-1.91 2.123-1.977 3.59.018 3.91 2.737 5.714 11.98 9.303l2.086.84c.428.185 7.954 2.71 4.433 6.836 0 0-1.7 1.63-2.736 1.858-3.826.84-7.372-1.835-11.064-4.45l-6.428 4.686c3.96 3.465 8.095 4.673 11.088 4.673 3.363 0 4.105-.25 9.143-3.92l3.474-2.594c1.587-1.186 1.914-2.13 1.986-3.602v-3.393c.002-3.94-2.713-5.747-11.98-9.337zm-76.21-7.165c-.937-.292-7.613-2.776-7.613-2.776-1.738-.537-3.673-1.07-5.206-1.07-.87 0-1.403.266-2.004.733l-11.088 8.283C95.94 98.376 95 103.18 95 106.723c0 10.617 6.014 15.422 11.557 15.422.872 0 2.207-.062 2.544-.33l6.593-5.214c.372 1.963 1.69 3.8 3.822 5.882l6.878-5.01c-2.67-2.737-3.206-3.604-3.206-6.812V92.135zm-7.613 23.264c-1.27.533-2.402.937-4.002.937-5.812 0-9.756-5.81-9.756-12.69 0-2.473.667-7.614 2.337-9.28.47-.47 1.27-.47 2.603-.47 2.674 0 4.413.19 8.82 2.27V115.4zM89.43 93.626c0-2.574-.94-3.73-4.073-5.72l-7.012 5.253v.002c3.27 2.005 3.472 2.87 3.472 4.81v17.497c0 2.403 1.4 4.542 3.94 7.013l6.873-5.01c-2.668-2.737-3.2-3.604-3.2-6.812V93.628zM88.778 20.786c0-5.95 2.88-11.23 7.316-14.52 0 0 1.097-1.017 1.094-2.135V0L95.62.905s-3.1 1.79-3.1 5.37l.006 2.29c-.132.152-.263.307-.39.464-.056-.358-.136-.726-.272-1.104l-1.228-3.364-1.165 1.385s-2.3 2.742-1.073 6.105l.79 2.178c-.068.188-.137.378-.2.57-.18-.326-.382-.653-.646-.97l-2.302-2.74-.622 1.697s-1.225 3.365 1.078 6.11l1.515 1.8c0 .03-.004.06-.004.087 0 .18.018.35.02.52-.29-.257-.604-.505-.978-.72l-3.1-1.787v1.807s0 3.58 3.102 5.367l2.08 1.2c.068.187.134.374.206.558-.366-.15-.754-.28-1.188-.357l-3.525-.617.62 1.7s1.223 3.362 4.75 3.98l2.395.422c.13.152.268.3.402.45-.41-.02-.832-.013-1.284.07l-3.523.62 1.16 1.387s2.3 2.742 5.83 2.117l2.435-.43c.997.577 2.045 1.08 3.148 1.47 1.346.498 2.613 1.156 3.785 1.95v-.92c-1.178-.75-2.447-1.37-3.784-1.844-6.88-2.554-11.778-9.174-11.778-16.94zm20.578.552l-5.017 3.76v5.96l-3.786 2.846V13.89c0-1.6-.27-2.03-1.6-3.39l3.423-2.493c1.263 1.23 1.96 2.29 1.96 3.488v11.187l5.018-3.755V9.902h3.783v25.992c5.915-2.468 10.07-8.302 10.07-15.108 0-9.038-7.322-16.364-16.365-16.364-9.037 0-16.362 7.326-16.362 16.364s7.326 16.364 16.363 16.364c.855 0 1.69-.084 2.512-.21V21.337zm17.287 4.635c3.1-1.787 3.1-5.367 3.1-5.367V18.8l-3.098 1.788c-.375.215-.69.462-.98.72.005-.173.02-.343.02-.52l-.002-.087 1.512-1.8c2.306-2.745 1.08-6.11 1.08-6.11l-.62-1.698-2.302 2.742c-.266.314-.47.643-.646.968-.063-.19-.132-.38-.202-.57l.792-2.176c1.227-3.364-1.074-6.106-1.074-6.106l-1.162-1.385-1.226 3.364c-.14.377-.218.744-.276 1.103-.125-.156-.256-.31-.387-.463V6.275c.004-3.58-3.098-5.37-3.098-5.37L116.507 0v4.13c-.004 1.12.707 1.83 1.09 2.13l.004.005c4.44 3.296 7.316 8.57 7.316 14.52 0 7.768-4.896 14.387-11.777 16.94v.005c-1.335.474-2.605 1.095-3.784 1.843v.92c1.172-.793 2.438-1.45 3.783-1.948 1.102-.392 2.148-.894 3.145-1.47l2.44.428c3.527.625 5.825-2.117 5.825-2.117L125.713 34l-3.523-.62c-.453-.084-.876-.092-1.285-.07.134-.15.274-.3.402-.45l2.393-.422c3.527-.62 4.75-3.98 4.75-3.98l.622-1.7-3.526.617c-.437.077-.822.207-1.19.357.074-.186.14-.37.207-.557l2.08-1.202z"/></svg>